<svg width="1920" height="961" viewBox="0 0 1920 961" fill="none" xmlns="http://www.w3.org/2000/svg">
<rect y="1" width="1920" height="961" fill="#130C3A"/>
<path d="M419.752 55.1331C405.036 34.9414 382.902 21.4224 358.219 17.5503C333.535 13.6781 308.325 19.77 288.133 34.4857C267.941 49.2014 254.422 71.3355 250.55 96.0188C246.678 120.702 252.77 145.913 267.486 166.104L343.619 110.619L419.752 55.1331Z" fill="#FF9D0A"/>
<path d="M1423.4 0.997077C1423.5 25.982 1433.53 49.902 1451.27 67.4948C1469.01 85.0877 1493.01 94.9123 1518 94.8074C1542.98 94.7024 1566.9 84.6766 1584.49 66.9354C1602.09 49.1941 1611.91 25.1908 1611.81 0.20587L1517.6 0.601466L1423.4 0.997077Z" fill="#0555FF"/>
<circle cx="176.334" cy="360" r="4.21763" transform="rotate(-90.3282 176.334 360)" fill="white" fill-opacity="0.05"/>
<circle cx="147.235" cy="360.048" r="4.21763" transform="rotate(-90.3282 147.235 360.048)" fill="white" fill-opacity="0.05"/>
<circle cx="176.334" cy="64.7655" r="4.21763" transform="rotate(-90.3282 176.334 64.7655)" fill="white" fill-opacity="0.05"/>
<circle cx="147.235" cy="64.8139" r="4.21763" transform="rotate(-90.3282 147.235 64.8139)" fill="white" fill-opacity="0.05"/>
<circle cx="176.334" cy="35.2418" r="4.21763" transform="rotate(-90.3282 176.334 35.2418)" fill="white" fill-opacity="0.05"/>
<circle cx="147.235" cy="35.2903" r="4.21763" transform="rotate(-90.3282 147.235 35.2903)" fill="white" fill-opacity="0.05"/>
<circle cx="176.758" cy="330.524" r="4.21763" transform="rotate(-90.3282 176.758 330.524)" fill="white" fill-opacity="0.05"/>
<circle cx="147.659" cy="330.573" r="4.21763" transform="rotate(-90.3282 147.659 330.573)" fill="white" fill-opacity="0.05"/>
<circle cx="176.758" cy="301" r="4.21763" transform="rotate(-90.3282 176.758 301)" fill="white" fill-opacity="0.05"/>
<circle cx="147.659" cy="301.049" r="4.21763" transform="rotate(-90.3282 147.659 301.049)" fill="white" fill-opacity="0.05"/>
<circle cx="176.758" cy="271.478" r="4.21763" transform="rotate(-90.3282 176.758 271.478)" fill="white" fill-opacity="0.05"/>
<circle cx="147.659" cy="271.526" r="4.21763" transform="rotate(-90.3282 147.659 271.526)" fill="white" fill-opacity="0.05"/>
<circle cx="176.758" cy="241.954" r="4.21763" transform="rotate(-90.3282 176.758 241.954)" fill="white" fill-opacity="0.05"/>
<circle cx="147.659" cy="242.002" r="4.21763" transform="rotate(-90.3282 147.659 242.002)" fill="white" fill-opacity="0.05"/>
<circle cx="176.758" cy="212.43" r="4.21763" transform="rotate(-90.3282 176.758 212.43)" fill="white" fill-opacity="0.05"/>
<circle cx="147.659" cy="212.479" r="4.21763" transform="rotate(-90.3282 147.659 212.479)" fill="white" fill-opacity="0.05"/>
<circle cx="176.758" cy="182.907" r="4.21763" transform="rotate(-90.3282 176.758 182.907)" fill="white" fill-opacity="0.05"/>
<circle cx="147.659" cy="182.956" r="4.21763" transform="rotate(-90.3282 147.659 182.956)" fill="white" fill-opacity="0.05"/>
<circle cx="176.758" cy="153.384" r="4.21763" transform="rotate(-90.3282 176.758 153.384)" fill="white" fill-opacity="0.05"/>
<circle cx="147.659" cy="153.432" r="4.21763" transform="rotate(-90.3282 147.659 153.432)" fill="white" fill-opacity="0.05"/>
<circle cx="176.758" cy="123.86" r="4.21763" transform="rotate(-90.3282 176.758 123.86)" fill="white" fill-opacity="0.05"/>
<circle cx="147.659" cy="123.909" r="4.21763" transform="rotate(-90.3282 147.659 123.909)" fill="white" fill-opacity="0.05"/>
<circle cx="176.758" cy="94.3365" r="4.21763" transform="rotate(-90.3282 176.758 94.3365)" fill="white" fill-opacity="0.05"/>
<circle cx="147.659" cy="94.3849" r="4.21763" transform="rotate(-90.3282 147.659 94.3849)" fill="white" fill-opacity="0.05"/>
<circle cx="64.9912" cy="360.048" r="4.21763" transform="rotate(-90.3282 64.9912 360.048)" fill="white" fill-opacity="0.05"/>
<circle cx="35.8918" cy="360.096" r="4.21763" transform="rotate(-90.3282 35.8918 360.096)" fill="white" fill-opacity="0.05"/>
<circle cx="64.9912" cy="64.8141" r="4.21763" transform="rotate(-90.3282 64.9912 64.8141)" fill="white" fill-opacity="0.05"/>
<circle cx="35.8918" cy="64.8625" r="4.21763" transform="rotate(-90.3282 35.8918 64.8625)" fill="white" fill-opacity="0.05"/>
<circle cx="64.9912" cy="35.2899" r="4.21763" transform="rotate(-90.3282 64.9912 35.2899)" fill="white" fill-opacity="0.05"/>
<circle cx="35.8918" cy="35.3384" r="4.21763" transform="rotate(-90.3282 35.8918 35.3384)" fill="white" fill-opacity="0.05"/>
<circle cx="65.4151" cy="330.573" r="4.21763" transform="rotate(-90.3282 65.4151 330.573)" fill="white" fill-opacity="0.05"/>
<circle cx="36.3157" cy="330.621" r="4.21763" transform="rotate(-90.3282 36.3157 330.621)" fill="white" fill-opacity="0.05"/>
<circle cx="65.4151" cy="301.049" r="4.21763" transform="rotate(-90.3282 65.4151 301.049)" fill="white" fill-opacity="0.05"/>
<circle cx="36.3157" cy="301.097" r="4.21763" transform="rotate(-90.3282 36.3157 301.097)" fill="white" fill-opacity="0.05"/>
<circle cx="65.4151" cy="271.526" r="4.21763" transform="rotate(-90.3282 65.4151 271.526)" fill="white" fill-opacity="0.05"/>
<circle cx="36.3157" cy="271.575" r="4.21763" transform="rotate(-90.3282 36.3157 271.575)" fill="white" fill-opacity="0.05"/>
<circle cx="65.4151" cy="242.002" r="4.21763" transform="rotate(-90.3282 65.4151 242.002)" fill="white" fill-opacity="0.05"/>
<circle cx="36.3157" cy="242.051" r="4.21763" transform="rotate(-90.3282 36.3157 242.051)" fill="white" fill-opacity="0.05"/>
<circle cx="65.4151" cy="212.478" r="4.21763" transform="rotate(-90.3282 65.4151 212.478)" fill="white" fill-opacity="0.05"/>
<circle cx="36.3157" cy="212.527" r="4.21763" transform="rotate(-90.3282 36.3157 212.527)" fill="white" fill-opacity="0.05"/>
<circle cx="65.4151" cy="182.956" r="4.21763" transform="rotate(-90.3282 65.4151 182.956)" fill="white" fill-opacity="0.05"/>
<circle cx="36.3157" cy="183.004" r="4.21763" transform="rotate(-90.3282 36.3157 183.004)" fill="white" fill-opacity="0.05"/>
<circle cx="65.4151" cy="153.432" r="4.21763" transform="rotate(-90.3282 65.4151 153.432)" fill="white" fill-opacity="0.05"/>
<circle cx="36.3157" cy="153.481" r="4.21763" transform="rotate(-90.3282 36.3157 153.481)" fill="white" fill-opacity="0.05"/>
<circle cx="65.4151" cy="123.908" r="4.21763" transform="rotate(-90.3282 65.4151 123.908)" fill="white" fill-opacity="0.05"/>
<circle cx="36.3157" cy="123.956" r="4.21763" transform="rotate(-90.3282 36.3157 123.956)" fill="white" fill-opacity="0.05"/>
<circle cx="65.4151" cy="94.3849" r="4.21763" transform="rotate(-90.3282 65.4151 94.3849)" fill="white" fill-opacity="0.05"/>
<circle cx="36.3157" cy="94.4333" r="4.21763" transform="rotate(-90.3282 36.3157 94.4333)" fill="white" fill-opacity="0.05"/>
<circle cx="121.929" cy="360.048" r="4.21763" transform="rotate(-90.3282 121.929 360.048)" fill="white" fill-opacity="0.05"/>
<circle cx="92.8298" cy="360.096" r="4.21763" transform="rotate(-90.3282 92.8298 360.096)" fill="white" fill-opacity="0.05"/>
<circle cx="121.929" cy="64.8141" r="4.21763" transform="rotate(-90.3282 121.929 64.8141)" fill="white" fill-opacity="0.05"/>
<circle cx="92.8298" cy="64.8625" r="4.21763" transform="rotate(-90.3282 92.8298 64.8625)" fill="white" fill-opacity="0.05"/>
<circle cx="121.929" cy="35.2899" r="4.21763" transform="rotate(-90.3282 121.929 35.2899)" fill="white" fill-opacity="0.05"/>
<circle cx="92.8298" cy="35.3384" r="4.21763" transform="rotate(-90.3282 92.8298 35.3384)" fill="white" fill-opacity="0.05"/>
<circle cx="122.353" cy="330.573" r="4.21763" transform="rotate(-90.3282 122.353 330.573)" fill="white" fill-opacity="0.05"/>
<circle cx="93.2538" cy="330.621" r="4.21763" transform="rotate(-90.3282 93.2538 330.621)" fill="white" fill-opacity="0.05"/>
<circle cx="122.353" cy="301.049" r="4.21763" transform="rotate(-90.3282 122.353 301.049)" fill="white" fill-opacity="0.05"/>
<circle cx="93.2537" cy="301.097" r="4.21763" transform="rotate(-90.3282 93.2537 301.097)" fill="white" fill-opacity="0.05"/>
<circle cx="122.353" cy="271.526" r="4.21763" transform="rotate(-90.3282 122.353 271.526)" fill="white" fill-opacity="0.05"/>
<circle cx="93.2538" cy="271.575" r="4.21763" transform="rotate(-90.3282 93.2538 271.575)" fill="white" fill-opacity="0.05"/>
<circle cx="122.353" cy="242.002" r="4.21763" transform="rotate(-90.3282 122.353 242.002)" fill="white" fill-opacity="0.05"/>
<circle cx="93.2538" cy="242.051" r="4.21763" transform="rotate(-90.3282 93.2538 242.051)" fill="white" fill-opacity="0.05"/>
<circle cx="122.353" cy="212.478" r="4.21763" transform="rotate(-90.3282 122.353 212.478)" fill="white" fill-opacity="0.05"/>
<circle cx="93.2537" cy="212.527" r="4.21763" transform="rotate(-90.3282 93.2537 212.527)" fill="white" fill-opacity="0.05"/>
<circle cx="122.353" cy="182.956" r="4.21763" transform="rotate(-90.3282 122.353 182.956)" fill="white" fill-opacity="0.05"/>
<circle cx="93.2538" cy="183.004" r="4.21763" transform="rotate(-90.3282 93.2538 183.004)" fill="white" fill-opacity="0.05"/>
<circle cx="122.353" cy="153.432" r="4.21763" transform="rotate(-90.3282 122.353 153.432)" fill="white" fill-opacity="0.05"/>
<circle cx="93.2538" cy="153.481" r="4.21763" transform="rotate(-90.3282 93.2538 153.481)" fill="white" fill-opacity="0.05"/>
<circle cx="122.353" cy="123.908" r="4.21763" transform="rotate(-90.3282 122.353 123.908)" fill="white" fill-opacity="0.05"/>
<circle cx="93.2537" cy="123.956" r="4.21763" transform="rotate(-90.3282 93.2537 123.956)" fill="white" fill-opacity="0.05"/>
<circle cx="122.353" cy="94.3849" r="4.21763" transform="rotate(-90.3282 122.353 94.3849)" fill="white" fill-opacity="0.05"/>
<circle cx="93.2538" cy="94.4333" r="4.21763" transform="rotate(-90.3282 93.2538 94.4333)" fill="white" fill-opacity="0.05"/>
<circle cx="10.586" cy="360.096" r="4.21763" transform="rotate(-90.3282 10.586 360.096)" fill="white" fill-opacity="0.05"/>
<circle cx="10.586" cy="64.8619" r="4.21763" transform="rotate(-90.3282 10.586 64.8619)" fill="white" fill-opacity="0.05"/>
<circle cx="10.5859" cy="35.3385" r="4.21763" transform="rotate(-90.3282 10.5859 35.3385)" fill="white" fill-opacity="0.05"/>
<circle cx="11.0099" cy="330.621" r="4.21763" transform="rotate(-90.3282 11.0099 330.621)" fill="white" fill-opacity="0.05"/>
<circle cx="11.0099" cy="301.097" r="4.21763" transform="rotate(-90.3282 11.0099 301.097)" fill="white" fill-opacity="0.05"/>
<circle cx="11.0099" cy="271.575" r="4.21763" transform="rotate(-90.3282 11.0099 271.575)" fill="white" fill-opacity="0.05"/>
<circle cx="11.0099" cy="242.051" r="4.21763" transform="rotate(-90.3282 11.0099 242.051)" fill="white" fill-opacity="0.05"/>
<circle cx="11.0099" cy="212.527" r="4.21763" transform="rotate(-90.3282 11.0099 212.527)" fill="white" fill-opacity="0.05"/>
<circle cx="11.0099" cy="183.004" r="4.21763" transform="rotate(-90.3282 11.0099 183.004)" fill="white" fill-opacity="0.05"/>
<circle cx="11.0099" cy="153.48" r="4.21763" transform="rotate(-90.3282 11.0099 153.48)" fill="white" fill-opacity="0.05"/>
<circle cx="11.0099" cy="123.957" r="4.21763" transform="rotate(-90.3282 11.0099 123.957)" fill="white" fill-opacity="0.05"/>
<circle cx="11.0099" cy="94.4341" r="4.21763" transform="rotate(-90.3282 11.0099 94.4341)" fill="white" fill-opacity="0.05"/>
<circle cx="1904.5" cy="495.5" r="124.5" stroke="white" stroke-opacity="0.05" stroke-width="40"/>
<circle cx="15" cy="789" r="175" fill="white" fill-opacity="0.03"/>
</svg>
